# xmcd
#
# Track frame offsets:
#	150
#	21364
#	43351
#	65484
#	95969
#	123109
#	144482
#	166207
#	204320
#	223439
#
# Disc length: 3193 seconds
# Revision: 0
# Processed by: cddbd v1.5.2PL0 Copyright (c) Steve Scherf et al.
# Submitted via: dBpowerAMP V12.0
#
DISCID=9c0c770a
DTITLE=The Paul DesLauriers Band - Relentless
DYEAR=2016
DGENRE=Blues\Rock
TTITLE0=Stewtro Rock (Just Got Back)
TTITLE1=I'm Your Man
TTITLE2=Ten Feet Tall 
TTITLE3=Still Under My Skin
TTITLE4=Wipes Away Your Sin
TTITLE5=Up In the Air
TTITLE6=We Just Might
TTITLE7=If I Still Had You 
TTITLE8=Gonna Make You Move (Part 1)
TTITLE9=Gonna Make You Move (Part 2)
EXTD=
EXTT0=
EXTT1=
EXTT2=
EXTT3=
EXTT4=
EXTT5=
EXTT6=
EXTT7=
EXTT8=
EXTT9=
PLAYORDER=
